# Blender v2.81 (sub 16) OBJ File: 'plane.blend'
# www.blender.org
mtllib boat.mtl
o Cube.002
v 1.688970 -0.993971 -0.924498
v 1.775148 0.268927 -0.827434
v 1.669881 -1.006426 0.944321
v 1.757852 0.257641 0.865878
v -1.727968 -0.518621 -0.956232
v -1.467950 0.720093 -0.857553
v -1.747057 -0.531077 0.912587
v -1.485247 0.708807 0.835758
v 1.862964 0.257420 -0.914380
v 1.843875 0.244965 0.954439
v -1.573063 0.720314 0.922704
v -1.553974 0.732770 -0.946114
v 1.674665 -0.453764 -0.833277
v 1.657368 -0.465050 0.860035
v -1.585730 -0.013884 0.829915
v -1.568434 -0.002598 -0.863396
v 1.679426 -1.000199 0.009912
v 1.853420 0.251192 0.020029
v -2.377753 -0.435781 -0.027769
v -2.203759 0.815610 -0.017651
v 1.766500 0.263284 0.019222
v -2.116839 0.803518 -0.016844
v 1.666016 -0.459407 0.013379
v -2.217323 0.080827 -0.022687
v -0.608078 -0.689527 0.923165
v 0.530902 -0.847977 0.933743
v 0.704896 0.403415 0.943860
v -0.434083 0.561864 0.933282
v 0.549991 -0.835521 -0.935076
v -0.588989 -0.677071 -0.945654
v -0.414994 0.574320 -0.935536
v 0.723985 0.415870 -0.924958
v 0.676820 0.408030 0.855838
v -0.404213 0.558419 0.845798
v -0.296568 0.528222 -0.847387
v 0.574584 0.407031 -0.839297
v 0.576337 -0.314661 0.849995
v -0.504697 -0.164273 0.839955
v -0.367869 0.015415 -0.851534
v 0.503283 -0.105776 -0.843443
v 0.371571 -0.279329 0.001357
v -0.922877 -0.099251 -0.010665
v -1.025360 -0.623920 -0.015209
v 0.327032 -0.812059 -0.002649
v -0.386917 0.569704 -0.847513
v 0.694117 0.419316 -0.837474
v -0.487400 -0.152987 -0.853357
v 0.593633 -0.303375 -0.843317
v -0.313951 0.516879 0.854460
v 0.557200 0.395688 0.862550
v -0.385252 0.004072 0.850313
v 0.485899 -0.117118 0.858404
vt 0.375000 0.125000
vt 0.625000 0.125000
vt 0.625000 0.250000
vt 0.375000 0.250000
vt 0.375000 0.416667
vt 0.625000 0.416667
vt 0.625000 0.500000
vt 0.375000 0.500000
vt 0.375000 0.625000
vt 0.625000 0.625000
vt 0.625000 0.750000
vt 0.375000 0.750000
vt 0.375000 0.916667
vt 0.625000 0.916667
vt 0.625000 1.000000
vt 0.375000 1.000000
vt 0.291667 0.625000
vt 0.291667 0.750000
vt 0.631359 0.625000
vt 0.631359 0.511739
vt 0.631359 0.511739
vt 0.631359 0.625000
vt 0.868641 0.625000
vt 0.868641 0.511739
vt 0.875000 0.500000
vt 0.875000 0.625000
vt 0.710453 0.511739
vt 0.708333 0.500000
vt 0.631359 0.738261
vt 0.789547 0.738261
vt 0.868641 0.738261
vt 0.875000 0.750000
vt 0.791667 0.750000
vt 0.789547 0.625000
vt 0.868641 0.625000
vt 0.868641 0.738261
vt 0.789547 0.738261
vt 0.710453 0.738261
vt 0.631359 0.738261
vt 0.710453 0.738261
vt 0.789547 0.511739
vt 0.868641 0.511739
vt 0.789547 0.511739
vt 0.291667 0.500000
vt 0.375000 0.000000
vt 0.625000 0.000000
vt 0.125000 0.500000
vt 0.208333 0.500000
vt 0.208333 0.625000
vt 0.125000 0.625000
vt 0.710453 0.511739
vt 0.710453 0.625000
vt 0.781869 0.738261
vt 0.781869 0.738261
vt 0.781869 0.738261
vt 0.781869 0.738261
vt 0.708333 0.750000
vt 0.791667 0.500000
vt 0.208333 0.750000
vt 0.125000 0.750000
vt 0.625000 0.833333
vt 0.375000 0.833333
vt 0.625000 0.333333
vt 0.375000 0.333333
vt 0.718131 0.738261
vt 0.718131 0.738261
vt 0.718131 0.738261
vt 0.718131 0.738261
vn 0.9904 -0.1378 0.0092
vn -0.0102 -0.0067 0.9999
vn -0.8087 0.1171 -0.5764
vn 0.0102 0.0067 -0.9999
vn -0.1377 -0.9904 -0.0080
vn 0.7934 -0.1055 -0.5995
vn 0.1377 0.9904 0.0080
vn -0.9904 0.1378 -0.0092
vn 0.7810 -0.1136 0.6141
vn -0.8203 0.1095 0.5613
vn -0.0127 -0.0247 0.9996
vn -0.0098 -0.0039 0.9999
vn -0.0146 -0.0061 0.9999
vn -0.0048 -0.0074 1.0000
usemtl Material.008
s off
f 17/1/1 18/2/1 10/3/1 3/4/1
f 25/5/2 28/6/2 11/7/2 7/8/2
f 19/9/3 20/10/3 12/11/3 5/12/3
f 29/13/4 32/14/4 9/15/4 1/16/4
f 43/17/5 19/9/5 5/12/5 30/18/5
f 22/19/6 8/20/6 15/21/6 24/22/6
f 21/23/7 4/24/7 10/25/7 18/26/7
f 34/27/7 8/20/7 11/7/7 28/28/7
f 22/19/7 6/29/7 12/11/7 20/10/7
f 46/30/7 2/31/7 9/32/7 32/33/7
f 41/34/7 23/35/7 13/36/7 48/37/7
f 21/23/8 2/31/8 13/36/8 23/35/8
f 45/38/2 6/29/2 16/39/2 47/40/2
f 33/41/4 4/24/4 14/42/4 37/43/4
f 4/24/8 21/23/8 23/35/8 14/42/8
f 37/43/7 14/42/7 23/35/7 41/34/7
f 8/20/7 22/19/7 20/10/7 11/7/7
f 2/31/7 21/23/7 18/26/7 9/32/7
f 6/29/9 22/19/9 24/22/9 16/39/9
f 25/44/5 7/8/5 19/9/5 43/17/5
f 7/8/10 11/7/10 20/10/10 19/9/10
f 1/45/1 9/46/1 18/2/1 17/1/1
f 3/47/5 26/48/5 44/49/5 17/50/5
f 26/48/5 25/44/5 43/17/5 44/49/5
f 15/21/7 38/51/7 42/52/7 24/22/7
f 38/51/7 37/43/7 41/34/7 42/52/7
f 8/20/4 34/27/4 38/51/4 15/21/4
f 34/27/4 33/41/4 37/43/4 38/51/4
f 2/31/2 46/30/2 48/37/2 13/36/2
f 40/53/1 36/54/1 50/55/1 52/56/1
f 24/22/7 42/52/7 47/40/7 16/39/7
f 42/52/7 41/34/7 48/37/7 47/40/7
f 6/29/7 45/38/7 31/57/7 12/11/7
f 45/38/7 46/30/7 32/33/7 31/57/7
f 4/24/7 33/41/7 27/58/7 10/25/7
f 33/41/7 34/27/7 28/28/7 27/58/7
f 17/50/5 44/49/5 29/59/5 1/60/5
f 44/49/5 43/17/5 30/18/5 29/59/5
f 5/12/4 12/11/4 31/61/4 30/62/4
f 30/62/4 31/61/4 32/14/4 29/13/4
f 3/4/2 10/3/2 27/63/2 26/64/2
f 26/64/2 27/63/2 28/6/2 25/5/2
f 35/65/11 36/54/11 46/30/11 45/38/11
f 40/53/12 39/66/12 47/40/12 48/37/12
f 36/54/13 40/53/13 48/37/13 46/30/13
f 39/66/14 35/65/14 45/38/14 47/40/14
f 50/55/2 49/67/2 51/68/2 52/56/2
f 36/54/7 35/65/7 49/67/7 50/55/7
f 35/65/8 39/66/8 51/68/8 49/67/8
f 39/66/5 40/53/5 52/56/5 51/68/5
